<?xml version="1.0" encoding="UTF-8"?>
<!DOCTYPE svg PUBLIC "-//W3C//DTD SVG 1.1//EN" "http://www.w3.org/Graphics/SVG/1.1/DTD/svg11.dtd">
<!-- Creator: CorelDRAW -->
<svg xmlns="http://www.w3.org/2000/svg" xml:space="preserve" width="17.4249mm" height="17.425mm" version="1.1" style="shape-rendering:geometricPrecision; text-rendering:geometricPrecision; image-rendering:optimizeQuality; fill-rule:evenodd; clip-rule:evenodd"
viewBox="0 0 155.2 155.2"
 xmlns:xlink="http://www.w3.org/1999/xlink"
 xmlns:xodm="http://www.corel.com/coreldraw/odm/2003">
 <defs>
  <style type="text/css">
   <![CDATA[
    .fil0 {fill:white}
   ]]>
  </style>
 </defs>
 <g id="Layer_x0020_1">
  <metadata id="CorelCorpID_0Corel-Layer"/>
  <path class="fil0" d="M60.24 60.24c3.82,-3.82 7.66,-7.45 11.48,-10.86 1.97,-1.76 3.93,-3.46 5.88,-5.1 4.92,-4.14 9.78,-7.9 14.47,-11.23 2.26,-1.6 4.48,-3.1 6.65,-4.5 17.71,-11.39 32.11,-15.63 37.95,-10.01 10.86,10.44 3.53,32.26 -7.82,53.03 -2.12,-2.81 -4.35,-5.63 -6.7,-8.44 -1.67,-2 -3.4,-4.01 -5.18,-6 -2.92,-3.26 -5.98,-6.51 -9.19,-9.71 -3.2,-3.2 -6.45,-6.27 -9.71,-9.19 5.38,6.62 17.3,22.2 27.36,39.37 -10.06,17.17 -21.98,32.74 -27.36,39.37 3.26,-2.92 6.51,-5.98 9.71,-9.19 3.2,-3.2 6.27,-6.45 9.19,-9.71 1.78,-1.99 3.51,-3.99 5.18,-6 2.34,-2.81 4.58,-5.63 6.7,-8.44 11.34,20.77 18.67,42.6 7.82,53.03 -5.84,5.61 -20.24,1.37 -37.95,-10.01 -2.17,-1.4 -4.39,-2.9 -6.65,-4.5 -4.69,-3.33 -9.54,-7.09 -14.47,-11.23 -1.95,-1.64 -3.91,-3.34 -5.88,-5.1 -3.82,-3.41 -7.66,-7.04 -11.48,-10.86 -1.1,-1.1 -2.19,-2.21 -3.26,-3.31l-0.01 -0.01c-2.62,-2.79 -5.67,-9.45 -5.49,-14.97 0.25,-7.61 3.86,-11.53 8.75,-16.43zm72.98 17.36c1.61,-2.31 3.14,-4.62 4.59,-6.91 17.48,-27.63 22.8,-53.02 11.26,-64.56 -11.54,-11.54 -36.93,-6.22 -64.56,11.26 -2.29,1.45 -4.59,2.98 -6.91,4.59 -4.8,3.35 -9.65,7.05 -14.47,11.07 -2,1.67 -4.01,3.4 -6,5.18 -3.26,2.92 -6.51,5.98 -9.71,9.19 -2.51,2.51 -4.93,5.04 -7.27,7.59l-0 0c-1.77,1.63 -4.38,3.16 -6.81,2.94 -2.36,-0.22 -4.74,-1.78 -6.71,-4.56 -26.5,-44.03 8.3,-52.67 44.06,-36 -27.63,-17.48 -53.02,-22.8 -64.56,-11.26 -10.79,10.79 -6.85,33.65 7.97,59.14l-0.01 -0.02c2.43,5.03 3.13,8.88 3.08,12.26 -0.07,4.55 -0.65,7.58 -4.56,15.04 -13.58,24.43 -16.89,46.1 -6.48,56.52 11.54,11.54 36.93,6.22 64.56,-11.26 -35.75,16.66 -70.55,8.03 -44.08,-35.97 2.75,-3.96 7.86,-6.52 13.16,-2.06 2.44,2.68 5,5.35 7.64,8 3.2,3.2 6.45,6.27 9.71,9.19 1.99,1.78 3.99,3.51 6,5.18 4.82,4.02 9.66,7.72 14.47,11.07 2.31,1.61 4.62,3.14 6.91,4.59 27.63,17.48 53.02,22.8 64.56,11.26 11.54,-11.54 6.22,-36.93 -11.26,-64.56 -1.45,-2.29 -2.98,-4.59 -4.59,-6.91zm-115.83 6.91c-0.24,0.38 -0.48,0.76 -0.72,1.14 0.24,-0.38 0.47,-0.76 0.72,-1.14zm0 -13.82c-0.25,-0.4 -0.5,-0.8 -0.75,-1.19 0.25,0.4 0.49,0.79 0.75,1.19zm-0.91 -1.45c-0.21,-0.34 -0.42,-0.68 -0.63,-1.02 0.21,0.34 0.42,0.68 0.63,1.02z"/>
 </g>
</svg>
