<?xml version="1.0" encoding="UTF-8"?>
<!DOCTYPE svg PUBLIC "-//W3C//DTD SVG 1.1//EN" "http://www.w3.org/Graphics/SVG/1.1/DTD/svg11.dtd">
<!-- Creator: CorelDRAW -->
<svg xmlns="http://www.w3.org/2000/svg" xml:space="preserve" width="17.4249mm" height="17.425mm" version="1.1" style="shape-rendering:geometricPrecision; text-rendering:geometricPrecision; image-rendering:optimizeQuality; fill-rule:evenodd; clip-rule:evenodd"
viewBox="0 0 500.19 500.19"
 xmlns:xlink="http://www.w3.org/1999/xlink"
 xmlns:xodm="http://www.corel.com/coreldraw/odm/2003">
 <defs>
  <style type="text/css">
   <![CDATA[
    .fil0 {fill:#858585;fill-opacity:0.501961}
   ]]>
  </style>
 </defs>
 <g id="Layer_x0020_1">
  <metadata id="CorelCorpID_0Corel-Layer"/>
  <path class="fil0" d="M194.15 194.15c12.31,-12.31 24.69,-24 37,-35 6.34,-5.66 12.66,-11.15 18.95,-16.43 15.87,-13.35 31.51,-25.47 46.63,-36.2 7.28,-5.16 14.43,-10 21.43,-14.5 57.07,-36.69 103.48,-50.36 122.3,-32.27 34.99,33.64 11.37,103.98 -25.19,170.92 -6.83,-9.07 -14.03,-18.14 -21.58,-27.2 -5.39,-6.46 -10.96,-12.91 -16.71,-19.34 -9.41,-10.52 -19.29,-20.97 -29.61,-31.3 -10.33,-10.33 -20.78,-20.2 -31.3,-29.61 17.34,21.35 55.75,71.55 88.19,126.87 -32.44,55.33 -70.84,105.52 -88.19,126.87 10.52,-9.41 20.97,-19.29 31.3,-29.61 10.32,-10.32 20.2,-20.78 29.61,-31.3 5.75,-6.42 11.32,-12.87 16.71,-19.34 7.56,-9.06 14.75,-18.14 21.58,-27.2 36.56,66.95 60.19,137.28 25.19,170.92 -18.81,18.09 -65.22,4.42 -122.3,-32.27 -7,-4.5 -14.15,-9.34 -21.43,-14.5 -15.12,-10.73 -30.76,-22.85 -46.63,-36.2 -6.28,-5.29 -12.61,-10.77 -18.95,-16.43 -12.31,-11 -24.69,-22.69 -37,-35 -3.56,-3.56 -7.06,-7.12 -10.51,-10.68l-0.03 -0.03c-8.44,-8.98 -18.28,-30.47 -17.68,-48.25 0.82,-24.53 12.45,-37.17 28.21,-52.94zm235.19 55.95c5.2,-7.46 10.14,-14.88 14.8,-22.26 56.34,-89.05 73.49,-170.87 36.29,-208.07 -37.21,-37.21 -119.02,-20.05 -208.07,36.29 -7.38,4.67 -14.81,9.61 -22.26,14.8 -15.48,10.79 -31.09,22.71 -46.63,35.67 -6.46,5.39 -12.91,10.96 -19.34,16.71 -10.52,9.41 -20.97,19.29 -31.3,29.61 -8.09,8.09 -15.9,16.25 -23.43,24.47l-0 0c-5.7,5.24 -14.13,10.18 -21.94,9.47 -7.62,-0.69 -15.29,-5.75 -21.63,-14.69 -85.42,-141.91 26.76,-169.73 141.99,-116.04 -89.05,-56.34 -170.87,-73.49 -208.07,-36.29 -34.76,34.76 -22.07,108.44 25.67,190.59l-0.03 -0.05c7.82,16.2 10.08,28.61 9.92,39.52 -0.21,14.66 -2.1,24.44 -14.69,48.48 -43.76,78.72 -54.44,148.58 -20.87,182.15 37.21,37.21 119.02,20.05 208.07,-36.29 -115.21,53.68 -227.36,25.88 -142.05,-115.94 8.85,-12.76 25.34,-21 42.41,-6.64 7.88,8.65 16.1,17.25 24.64,25.79 10.33,10.33 20.78,20.2 31.3,29.61 6.42,5.75 12.87,11.32 19.34,16.71 15.54,12.96 31.14,24.88 46.63,35.67 7.46,5.2 14.88,10.13 22.26,14.8 89.05,56.34 170.87,73.49 208.07,36.29 37.21,-37.21 20.05,-119.02 -36.29,-208.07 -4.67,-7.38 -9.61,-14.81 -14.8,-22.26zm-373.29 22.26c-0.78,1.23 -1.54,2.45 -2.31,3.67 0.76,-1.22 1.53,-2.45 2.31,-3.67zm0 -44.53c-0.82,-1.28 -1.62,-2.56 -2.41,-3.84 0.79,1.28 1.59,2.56 2.41,3.84zm-2.92 -4.66c-0.67,-1.1 -1.35,-2.19 -2.02,-3.28 0.67,1.09 1.34,2.19 2.02,3.28z"/>
 </g>
</svg>
