<?xml version="1.0" encoding="UTF-8"?>
<!DOCTYPE svg PUBLIC "-//W3C//DTD SVG 1.1//EN" "http://www.w3.org/Graphics/SVG/1.1/DTD/svg11.dtd">
<!-- Creator: CorelDRAW -->
<svg xmlns="http://www.w3.org/2000/svg" xml:space="preserve" width="82.7755mm" height="25.9671mm" version="1.1" style="shape-rendering:geometricPrecision; text-rendering:geometricPrecision; image-rendering:optimizeQuality; fill-rule:evenodd; clip-rule:evenodd"
viewBox="0 0 1434.44 449.99"
 xmlns:xlink="http://www.w3.org/1999/xlink"
 xmlns:xodm="http://www.corel.com/coreldraw/odm/2003">
 <defs>
  <style type="text/css">
   <![CDATA[
    .fil0 {fill:#FEFEFE}
   ]]>
  </style>
 </defs>
 <g id="Layer_x0020_1">
  <metadata id="CorelCorpID_0Corel-Layer"/>
  <g id="_2030776692320">
   <path class="fil0" d="M638.56 311.83l15.35 -59.49c7.02,0 41.57,-0.44 45.39,0.18 31.92,5.18 28.57,47.09 -4.33,56.71 -11.46,3.35 -14.98,2.6 -26.67,2.6 -9.91,0 -19.83,0 -29.74,0zm32.62 -124.73c1.15,-4.96 11.51,-49.44 11.51,-51.81 12.87,0 24.35,0.54 37.42,0.48 6.01,-0.03 11.47,1.37 14.88,3.83 11.97,8.61 6.56,36.55 -14.47,44.57 -12.16,4.64 -32.92,2.94 -49.35,2.94zm-122.33 -39.82l20.17 -0.02c2.76,0.03 3.62,0.5 6.7,0.5 -0.06,2.51 -14.75,57.58 -16.41,64.19 -5.33,21.33 -11.33,42.93 -16.69,64.38 -9.91,39.65 -21.18,80.37 -31.09,120.03 -0.62,2.48 -1.82,6.18 -2.02,8.54l177.99 0.01c7.92,0.05 22.57,-2.53 29.53,-4.05 18.6,-4.04 39.07,-13.57 54.21,-24.95 5.38,-4.04 9.8,-7.71 14.48,-12.39 4.68,-4.68 8.27,-8.69 12.32,-14.07 11.86,-15.73 21.38,-37.76 21.38,-58.25 0,-20.86 -1.33,-36.34 -10.7,-52.14 -5.78,-9.75 -19.96,-22.04 -31.03,-24.61 0.98,-1.34 4.78,-2.92 6.57,-3.99 8.93,-5.35 13.66,-8.4 21.85,-15.09 28.93,-23.64 49.62,-57.76 41.6,-96.99 -3.02,-14.79 -10.95,-28.41 -22.38,-38.07l-5.61 -4.46c-12.74,-8.85 -28.85,-14.53 -44.47,-15.98 -14.7,-1.36 -13.83,-1 -29.22,-1 -47.18,0 -94.35,0 -141.52,0 -0.38,1.63 -2.3,5.26 -3.2,6.87 -6.92,12.36 -18.5,35.1 -24.62,47.34 -0.09,0.17 -27.28,51.86 -27.82,54.21z"/>
   <path class="fil0" d="M1316.42 152.56c0,17.99 0.48,34.39 0.48,52.29 0,9.22 0.48,16.74 0.48,25.9 0,7.12 -0.86,20.63 0.48,26.39l-46.06 0 10.96 -25.98c8.48,-21.1 19.17,-44.19 27.83,-65.72l4.18 -9.73c0.38,-0.93 0.3,-0.95 0.69,-1.71 0.4,-0.8 0.45,-0.84 0.96,-1.44zm-129.05 -8.64l29.26 0 -65.88 130.33c-2.85,5.69 -5.47,10.46 -8.32,16.15 -2.81,5.63 -5.34,10.68 -8.16,16.31 -2.84,5.67 -5.56,10.63 -8.32,16.15 -2.78,5.57 -5.46,10.92 -8.31,16.63 -2.85,5.7 -5.48,10.48 -8.31,16.15 -2.17,4.33 -24.13,47.13 -24.63,49.25l127.13 0c0.21,-2.48 21.24,-50.85 24.39,-59.09 0.51,-1.33 0.93,-3.28 2.48,-3.28l78.2 0 0 62.36 117.54 0c0,-9.28 -1.49,-24.64 -1.44,-34.06 0.02,-4.25 -0.5,-6.95 -0.48,-11.52 0.04,-6.74 -0.94,-15.2 -0.95,-23.04 -0,-2.64 -0.38,-3.09 -0.5,-5.26 -0.11,-1.98 0.02,-4.25 0.02,-6.26 -0,-2.64 -0.38,-3.09 -0.5,-5.26 -0.11,-2 0.05,-4.23 0.02,-6.26 -0.03,-2.59 -0.44,-2.83 -0.51,-5.24 -0.06,-1.89 0.06,-3.89 0.03,-5.79 -0.03,-2.59 -0.44,-2.83 -0.51,-5.24 -0.06,-2.05 0.06,-4.21 0.04,-6.27 -0.03,-2.59 -0.44,-2.83 -0.52,-5.24 -0.06,-2.05 0.09,-4.21 0.03,-6.27 -0.07,-2.42 -0.48,-2.66 -0.52,-5.24 -0.02,-2.03 0.13,-4.26 0.02,-6.26 -0.12,-2.17 -0.5,-2.62 -0.5,-5.26l-1.49 -40.72c-0.49,-4.34 -0.46,-18.39 -1.02,-22.48 -0.91,-6.63 0.01,-16.08 -1.03,-22.96 -0.85,-5.64 -0.88,-29.24 -1.59,-34.4l-2.04 -51.21c0.01,-2.78 -0.37,-3.51 -0.49,-5.74 -0.1,-1.8 0.01,-3.93 0.01,-5.77 0.01,-2.78 -0.37,-3.51 -0.49,-5.74 -0.1,-1.83 0.02,-3.92 0.02,-5.78 -0,-2.77 -0.44,-3.27 -0.51,-5.72 -0.06,-1.9 0.06,-3.89 0.03,-5.79 -0.03,-2.67 -0.48,-3.06 -0.52,-5.72 -0.02,-1.92 0.06,-3.88 0.04,-5.79 -0.03,-2.4 -0.5,-3.33 -0.5,-5.74l-173.66 0c-1.74,0 -8.17,13.01 -9.43,15.52l-8.96 16.47c-3.89,7.86 -10.48,18.58 -14.4,26.38l-21.42 39.51c-1.02,2.06 -3.16,4.77 -3.36,7.19z"/>
   <path class="fil0" d="M1103.42 47.97c-8.09,-1.89 -16.21,-5.67 -24.96,-6.22 -28.1,-1.78 -54.83,3.8 -81.26,11.3 -7.79,2.21 -15.31,5.34 -22.69,8.49 -14.25,6.09 -27.5,13.46 -40.15,22.22 -8.76,6.07 -18.31,13.09 -25.83,20.7 -2.74,2.77 -5.38,4.94 -8.16,7.68l-11.03 12c-0.85,0.96 -0.84,1.19 -1.69,2.15 -30.58,34.33 -55.28,90.59 -55.28,136.13 0,19.7 1.2,33.16 6.24,51.33 4.45,16.05 11.81,31.48 21.86,44.82 2.67,3.55 5.32,7.11 8.48,10.23 10.73,10.6 17.83,17.66 31.7,25.39 12.4,6.91 26.26,12.23 40.35,16.26 2.59,0.74 5.15,1.23 7.83,1.76 25.12,5 54.54,6.47 80.17,2.21 8.51,-1.41 16.77,-3.52 25.05,-5.17 2.12,-0.42 3.77,-0.67 6.03,-1.16 3.19,-0.7 2.34,-1.43 3.53,-4.15l19.34 -41.11c1.8,-3.57 3.18,-6.81 4.96,-10.39 5.93,-11.84 11.05,-24.06 16.78,-35.99 3.88,-8.08 8.14,-18.14 12.16,-25.74 -2.73,0.73 -5.81,3.58 -8.36,5.08 -18.93,11.12 -48.8,23.71 -71.28,23.71 -13.65,0 -28.36,-1.48 -39.76,-5.33 -9.8,-3.31 -17.74,-7.72 -25.15,-13.71 -14.59,-11.78 -25.27,-32.15 -25.27,-52.44 0,-22.56 6.5,-42.44 19.67,-59.97 3.55,-4.72 7.68,-8.86 11.87,-13.07 17.41,-17.51 47.08,-27.22 72.08,-27.22 20.45,0 34.38,2.08 51.47,9.45 10.34,4.46 19.62,10.42 28.51,17.07 1.25,0.93 2.59,2.37 3.98,2.74l37.9 -69.08c2.15,-4.17 17.06,-29.54 17.27,-32.14 -5.04,-1.17 -71.85,-38.79 -76.28,-39.82 -3.85,2.58 -6.39,9.29 -10.08,11.99z"/>
   <path class="fil0" d="M150.67 110.34c0,17.6 7.34,35.55 18.35,47.85 0.97,1.08 1.26,1.62 2.16,2.64l11.08 11.95c2.66,3.34 6.03,5.97 8.99,9.72 1.49,1.89 2.33,3.39 3.76,5.35 15.71,21.5 22.36,53.37 22.34,80.32 -0,6.16 0.48,11.21 0.48,17.75 0,6.24 0.02,12.48 0,18.71 -0.01,3.65 0.49,5.43 0.5,8.62l-0.02 28.32 9.12 0 -0.48 -48.45c0,-10.66 0.5,-19.86 0.48,-30.22 -0.02,-9.61 1.47,-19.84 2.94,-28.25 2.89,-16.57 9.87,-32.77 17.79,-44.58 2.2,-3.28 4,-5.82 6.47,-8.88 2.59,-3.21 4.9,-4.97 7.46,-7.89l11.04 -11.98c11.52,-11.84 20.98,-31.5 20.98,-49.54 0,-12.23 -2.12,-21.33 -5.95,-30.5 -1.78,-4.26 -4.03,-7.74 -6.42,-11.34 -3.42,-5.13 -8.14,-9.62 -12.9,-13.48 -11.1,-9.01 -27.35,-14.84 -41.9,-15.19 -5.22,-0.12 0.41,-0.72 -8.17,-0.04 -5,0.4 -4.55,-0.27 -11.68,1.28 -12.12,2.63 -20.88,6.31 -30.58,13.55 -2.12,1.59 -2.98,2.68 -4.87,4.24 -5.82,4.81 -11.95,13.88 -14.87,20.64 -3.46,8.01 -6.1,18.14 -6.1,29.4z"/>
   <path class="fil0" d="M232.22 439.92c-39.19,0 -67.33,-3.09 -104.59,-12.95 -3.27,-0.87 -7,-1.85 -10.13,-2.82 -16.69,-5.17 -32.25,-10.22 -48.41,-17.32 -4.27,-1.88 -14.88,-6.11 -18.29,-8.1 -1.3,-0.76 -0.6,0.28 -2.5,-3.74 -0.8,-1.68 -1.29,-2.97 -2.07,-4.65 -5.71,-12.21 -13.7,-33.9 -17.74,-47.5 -6.63,-22.33 -11.11,-40.24 -14.49,-64.19 -5.23,-37.07 -5.41,-75.19 -0.16,-112.26 5.37,-37.91 14.51,-66.96 28.18,-101.35l5.82 -13.36c0.86,-2.06 1.02,-2.89 2.93,-3.78 20.87,-9.72 53.94,-22 76.88,-26.74l21.42 -4.48c23.12,-4.52 51.6,-6.59 76.4,-6.59 54.17,0 120.64,16.45 169.03,39.65 0.95,0.45 1.44,0.72 2.24,1.11 0.15,0.07 1.13,0.53 1.29,0.63 1.39,0.85 0.51,0.21 1.06,0.86 2.58,3.09 14.39,33.96 15.81,37.92 29.64,82.46 33.95,171.7 6.47,255.81 -0.61,1.87 -1.01,3.56 -1.55,5.17 -1.17,3.49 -2.37,6.56 -3.48,9.95 -3.01,9.15 -10.78,28.1 -15.28,37.5 -1.66,3.46 -2.5,3.74 -7.27,5.68 -3.12,1.27 -5.91,2.66 -9.05,3.9 -10.05,4 -18.17,7.25 -28.6,10.74 -3.49,1.16 -6.75,2.18 -10.19,3.24 -20.69,6.36 -54.38,13.5 -76.3,15.33 -1.57,0.13 -4.15,0.37 -6.07,0.64 -6.41,0.91 -24.09,1.71 -31.39,1.71zm-232.19 -223.08l1.16 36.26c0.3,2.03 0.26,4.12 0.55,6.17l2.16 18.95c0.42,3.81 1.25,8.21 1.88,12.03 2.01,12.12 4.33,22.56 7.29,34.44l6.04 21.31c2.03,7.34 4.61,13.76 6.99,20.83l14.22 34.23c3.52,7.14 -0.69,3.06 11.5,9.13 17.37,8.64 54.07,21.34 71.48,25.9 68.95,18.09 135.85,18.56 205.14,1.24 26.6,-6.65 42.99,-12.88 67.56,-23.11l9.9 -4.49c1.62,-0.89 1.41,-0.46 2.99,-4.21 1.46,-3.46 2.85,-6.2 4.32,-9.6 4.24,-9.86 8.6,-20 12.03,-30.19 5.79,-17.17 8.34,-24.26 13.07,-43.06 3.74,-14.9 6.69,-31.39 8.69,-47.44 1.42,-11.39 2.37,-27.32 2.52,-39.22 0.03,-2.77 0.52,-3.62 0.51,-6.69 -0.01,-2.78 -0.07,-4.77 -0.36,-6.86 -0.61,-4.43 0.33,-9.21 -0.33,-13.58 -0.63,-4.19 -0.37,-8.79 -0.83,-13.08 -4.26,-39.8 -11.7,-76.91 -26.04,-114.05 -4.07,-10.54 -9.51,-24.23 -14.5,-34.43 -1.22,-2.48 -0.82,-2.61 -3.35,-3.85l-29.1 -12.63c-30.48,-12.2 -55.63,-18.91 -87.38,-24.88 -4.03,-0.76 -8.5,-1.58 -12.35,-2.04 -16.66,-1.99 -33.58,-3.92 -52.21,-3.92 -35.35,0 -69.79,4.56 -98.35,11.51 -10.91,2.65 -31.86,8.39 -42.55,12.62 -14.69,5.81 -23.61,8.43 -39.02,16.15 -2,1 -2.24,1.31 -3.15,3.57l-4.19 9.24c-6.56,13.66 -15.92,40.42 -20.27,55.53 -3.96,13.8 -7.94,30.71 -10.28,44.89 -0.63,3.82 -1.46,8.22 -1.88,12.03 -0.45,4.06 -1.11,7.9 -1.46,11.97 -0.78,9.07 -1.91,16.56 -1.92,25.91 0,2.88 -0.48,3.48 -0.51,6.2 -0.03,2.39 0.02,4.82 0.02,7.22z"/>
   <path class="fil0" d="M233.18 269.13l0 72.44 7.68 0c0,-18.81 6.76,-34.37 17.06,-48.19 7.08,-9.5 17.7,-15.82 28.03,-20.9 12.86,-6.34 35.04,-12.36 49.71,-16.02 10.42,-2.6 14.5,-4.1 22.41,-10.69 4.13,-3.44 1.46,-1.39 4.05,-4.11 7.79,-8.18 11.15,-20.14 11.15,-32.98 0,-11.84 -4.65,-22.75 -9.14,-30.2 -2.69,-4.46 -5.08,-7.27 -8.73,-10.93 -7.19,-7.22 -15.7,-11.3 -25.69,-13.65 -18.69,-4.4 -30,-1.74 -45.58,8.83 -11.41,7.74 -21.03,18.86 -28.69,30.32 -13.51,20.21 -22.26,48.2 -22.26,76.09z"/>
   <path class="fil0" d="M71.51 207.72c0,12.35 1.64,19.94 7.58,29.36 3.26,5.18 7.27,9 12.19,12.28 1.98,1.32 3.2,2.04 5.5,3.14 5.02,2.41 19.11,5.76 25.31,7.31 8.71,2.19 17.22,5.05 25.17,7.93 14.61,5.29 27.57,12.01 37.84,23.57 0.79,0.89 1.36,1.28 2.11,2.21 8.84,10.92 17.67,28.45 17.67,48.05l6.72 0 0 -71.96c0,-47.2 -22.9,-87.08 -50.37,-106.5 -3.71,-2.62 -8.11,-5.26 -12.47,-7.2 -11.3,-5.03 -20.5,-4.92 -32.9,-2.2 -4.53,0.99 -10.73,3.08 -14.61,5.06 -16.56,8.48 -29.73,30.01 -29.73,48.94z"/>
   <path class="fil0" d="M68.15 277.77c0,10.83 2,18.84 8.78,27.2 13.93,17.17 27.22,19.2 48.7,16.85 22.02,-2.41 35.42,-11.42 56.29,5.29 4,3.2 7.28,8.97 8.56,14.46l7.2 0c0,-16.64 -6.28,-30.67 -14.28,-40.41 -11.87,-14.44 -23.34,-19.25 -40.27,-25.93 -15.18,-5.99 -40.24,-10.81 -50.86,-15.34 -3.3,-1.41 -5.79,-2.9 -8.5,-4.94 -2.06,-1.54 -5.42,-4.81 -6.03,-7.41 -6.71,4.5 -9.59,21.63 -9.59,30.22z"/>
   <path class="fil0" d="M247.09 339.65l0 1.92 7.2 0c0.38,-4.59 4.73,-11.12 8.04,-14.03 8.99,-7.9 21.43,-12.2 34.71,-9.53 2.41,0.49 4.78,0.97 7.19,1.45 14.14,2.81 31.99,5.35 44.44,0.39 16.28,-6.49 27.96,-22.44 27.96,-41.13 0,-6.15 -0.9,-13.22 -2.33,-17.81 -1.41,-4.51 -3.92,-11.13 -7.26,-13.37 -2.43,4.6 -4.92,7.29 -9.75,9.91l-4.47 2.25c-5.05,2.37 -32.67,9.74 -40.74,12.03l-19.71 7.16c-13.56,6.06 -21.9,11.2 -30.76,22.01 -7.1,8.67 -14.5,23.18 -14.5,38.75z"/>
   <path class="fil0" d="M144.91 386.67c0.45,-0.93 1.92,-8.04 1.92,-9.59 2.29,1.1 8.16,0.61 8.16,3.84 0,9.93 -6.22,6.65 -10.07,5.76zm-12 19.67c1.24,0.59 5.67,1.44 7.68,1.44 0.34,-4.08 2.8,-11.22 2.88,-14.87 12.78,0 5.76,8.05 5.76,16.79 2.2,1.06 5.75,1.25 8.16,2.4 -0.1,-4.6 -1.4,-2.05 0.76,-12.19 1.16,-5.44 0.55,-4.08 -1.72,-7.47 4.45,-2.35 5.76,-4.63 5.76,-11.51 0,-8.3 -12.06,-8.81 -21.59,-11.03l-5.88 27.22c-0.49,2.27 -1.74,6.61 -1.8,9.23z"/>
   <path class="fil0" d="M265.8 398.18c5,0 6.24,-0.53 6.24,7.2 0,3.56 -3.32,3.16 -6.24,3.84 -0.42,-5.1 -2.91,-11.03 0,-11.03zm-3.36 -14.87c3.84,-0.32 7.2,-2.4 7.2,4.8 0,4.29 -3.81,3.16 -6.24,4.32 -0.07,-3.09 -0.96,-5.33 -0.96,-9.12zm-8.16 -4.32c0,6.34 4.69,32.18 4.8,36.94l13.41 -1.94c4.14,-0.89 7.7,-3.29 7.7,-8.13 0,-5.8 -1.43,-11.55 -6.72,-11.99 2.19,-3 3.36,-1.86 3.36,-8.16 0,-4.12 -2.7,-8.64 -7.68,-8.64 -5.37,0 -10.04,1.81 -14.87,1.92z"/>
   <path class="fil0" d="M170.34 404.42c0,8.21 6.83,11.03 13.91,11.03 11.24,0 11.14,-13.06 12.47,-24.95 0.41,-3.69 1.15,-8.01 1.44,-11.51 -1.61,-0.37 -5.81,-0.96 -7.68,-0.96 -0.21,2.56 -0.72,5.58 -1.11,8.49 -0.33,2.47 -0.68,5.57 -1.09,8.51 -1.01,7.33 -0.06,13.71 -6.44,13.71 -5.84,0 -3.48,-7.57 -2.92,-12.51l2.36 -17.88c0.05,-2.14 -0.69,-1.62 -2.68,-1.87 -1.39,-0.17 -2.96,-0.36 -4.92,-0.36 -0.65,7.8 -3.36,21.45 -3.36,28.3z"/>
   <path class="fil0" d="M99.81 390.98c0,6.76 5.31,10.07 11.99,10.07 2.41,0 2.78,-1.37 4.32,-2.4 -0.33,1.41 -0.48,1.46 -0.48,3.36 1.66,0.39 3.42,0.78 4.8,1.44 1.1,-2.29 2.1,-7.07 2.77,-9.7 0.67,-2.59 2.45,-7.49 2.5,-9.97 -3.82,-0.89 -7.41,-2.51 -11.03,-3.36 -0.49,2.09 -1.38,3.73 -1.44,6.24 1.59,0.13 2.88,0.63 4.32,0.96 -1.8,7.72 -3.67,7.68 -7.2,7.68 -4.76,0 -2.36,-8.97 -1.82,-10.93 0.47,-1.72 0.95,-3.56 1.54,-5.65 2.21,-7.82 2.26,-9.32 6.99,-9.32 4.77,0 4.01,4.88 3.36,7.68 1.32,0.63 5.4,1.77 7.2,1.92 0.11,-4.71 3.17,-11.49 -7.13,-14.94 -4.99,-1.68 -8.88,-1.97 -12.45,1.6 -4.04,4.04 -8.25,20.58 -8.25,25.33z"/>
   <path class="fil0" d="M325.77 371.79c1.54,1.77 6.39,12.51 6.72,13.91 -5.9,0.49 -4.58,3.53 -5.42,-3.7 -0.32,-2.74 -0.67,-7.49 -1.3,-10.21zm-6.24 -4.8l2.4 37.9c2.52,-0.59 4.68,-1.33 7.2,-1.92 0,-3.31 -0.71,-6.62 -0.96,-9.6 2.07,-0.48 5.96,-1.58 7.68,-2.4 0.74,3.17 3.3,5.83 3.84,8.16 2.15,0 6.22,-1.22 7.68,-1.92l-18.71 -33.1c-1.32,0.63 -2.98,0.95 -4.38,1.38 -1.71,0.52 -3,1.1 -4.74,1.5z"/>
   <path class="fil0" d="M219.75 395.78l-5.28 0c0,-3.97 0.48,-6.01 0.48,-10.07 4.45,0 3.19,0.03 7.2,0.96 0.63,2.72 1.26,9.12 -2.4,9.12zm-13.91 20.63l6.24 0.48c2.39,0 1.26,-4.17 1.47,-6.69 0.21,-2.67 0.45,-4.8 0.45,-8.18 4.9,0 9.66,0.58 13.23,-2.6 4.29,-3.82 4.69,-15.9 -2.22,-18.49 -2.47,-0.93 -13.22,-0.98 -17.24,-0.98 0,9.96 -1.92,26.05 -1.92,36.46z"/>
   <path class="fil0" d="M286.91 380.91c0,8.19 1.76,29.26 12.95,29.26 12.54,0 13.7,-10.19 11.89,-15.74 -0.64,-1.95 -2.73,0.03 -7.09,0.39 0,4.11 1.16,5.21 -0.48,8.64 -5.79,1.35 -6.41,-1.09 -7.87,-8.44 -1.48,-7.43 -5.29,-17.47 2.12,-17.47 2.1,0 3.06,4.13 3.84,5.76 1.33,-0.11 5.8,-1 6.72,-1.44 -1.36,-16.39 -22.07,-11.57 -22.07,-0.96z"/>
  </g>
 </g>
</svg>
