<?xml version="1.0" encoding="UTF-8"?>
<!DOCTYPE svg PUBLIC "-//W3C//DTD SVG 1.1//EN" "http://www.w3.org/Graphics/SVG/1.1/DTD/svg11.dtd">
<!-- Creator: CorelDRAW -->
<svg xmlns="http://www.w3.org/2000/svg" xml:space="preserve" width="115.097mm" height="59.1081mm" version="1.1" style="shape-rendering:geometricPrecision; text-rendering:geometricPrecision; image-rendering:optimizeQuality; fill-rule:evenodd; clip-rule:evenodd"
viewBox="0 0 33956.34 17438.25"
 xmlns:xlink="http://www.w3.org/1999/xlink"
 xmlns:xodm="http://www.corel.com/coreldraw/odm/2003">
 <defs>
  <style type="text/css">
   <![CDATA[
    .str0 {stroke:#999999;stroke-width:780.57;stroke-linecap:round;stroke-linejoin:round;stroke-miterlimit:22.9256;stroke-opacity:0.200000}
    .fil1 {fill:none}
    .fil0 {fill:gray;fill-opacity:0.101961}
   ]]>
  </style>
 </defs>
 <g id="Layer_x0020_1">
  <metadata id="CorelCorpID_0Corel-Layer"/>
  <g id="_1710630641232">
   <polygon class="fil0" points="-0,0 33956.34,0 33956.34,17438.25 -0,17438.25 "/>
   <path class="fil1 str0" d="M18274.16 6991.31l4.25 0m-5188.1 -2160.04l7775.54 7775.57m-2017.31 -3741.75c248,-23.34 498.94,71.69 721.48,286.05l1296.01 1296.01m-7775.71 -0.18l2159.83 -2159.83c400.82,-385.8 895.04,-385.8 1296.01,0l2159.83 2159.83m-3887.66 -5615.7l4751.7 0c715.58,0 1296.01,580.43 1296.01,1296.01l0 4751.7m-369.81 1338.81c-242.92,248.65 -576.5,389.05 -924.25,389.05 -0.47,0 -1.48,0 -1.95,0l-5183.73 0.15c-715.43,-0.15 -1295.83,-580.55 -1295.83,-1296.15l0 -5183.7c0,-365.06 150.7,-694.69 393.15,-929.97"/>
  </g>
 </g>
</svg>
