<?xml version="1.0" encoding="UTF-8"?>
<!DOCTYPE svg PUBLIC "-//W3C//DTD SVG 1.1//EN" "http://www.w3.org/Graphics/SVG/1.1/DTD/svg11.dtd">
<!-- Creator: CorelDRAW -->
<svg xmlns="http://www.w3.org/2000/svg" xml:space="preserve" width="59.108mm" height="59.1081mm" version="1.1" style="shape-rendering:geometricPrecision; text-rendering:geometricPrecision; image-rendering:optimizeQuality; fill-rule:evenodd; clip-rule:evenodd"
viewBox="0 0 2793.98 2793.98"
 xmlns:xlink="http://www.w3.org/1999/xlink"
 xmlns:xodm="http://www.corel.com/coreldraw/odm/2003">
 <defs>
  <style type="text/css">
   <![CDATA[
    .str0 {stroke:#999999;stroke-width:125.07;stroke-linecap:round;stroke-linejoin:round;stroke-miterlimit:22.9256;stroke-opacity:0.200000}
    .fil1 {fill:none}
    .fil0 {fill:gray;fill-opacity:0.101961}
   ]]>
  </style>
 </defs>
 <g id="Layer_x0020_1">
  <metadata id="CorelCorpID_0Corel-Layer"/>
  <g id="_1710627211312">
   <polygon class="fil0" points="-0,0 2793.98,0 2793.98,2793.98 -0,2793.98 "/>
   <path class="fil1 str0" d="M1604.64 1120.15l0.68 0m-831.24 -346.08l1245.81 1245.81m-323.22 -599.5c39.73,-3.73 79.94,11.48 115.6,45.83l207.64 207.65m-1245.84 -0.03l346.05 -346.05c64.22,-61.81 143.4,-61.81 207.65,0l346.05 346.05m-622.89 -899.76l761.33 0c114.65,0 207.64,93 207.64,207.65l0 761.33m-59.25 214.5c-38.92,39.84 -92.37,62.33 -148.08,62.33 -0.08,0 -0.23,0 -0.31,0l-830.54 0.03c-114.62,-0.03 -207.61,-93.03 -207.61,-207.67l0 -830.54c0,-58.5 24.15,-111.3 62.99,-149"/>
  </g>
 </g>
</svg>
